<svg width="48" height="55" viewBox="0 0 48 55" fill="none" xmlns="http://www.w3.org/2000/svg">
<path d="M28.8561 31.1006L39.1956 8.41782L29.3734 24.5024L20.6218 22.0012L18.2224 31.2044L9.29969 46.0631L20.603 30.3988L28.8561 31.1006Z" fill="white"/>
<path d="M28.4447 37.1515L30.2625 32.6539L22.694 31.8884L20.9 37.0529L9.29985 46.0632L22.9667 37.2332L28.4447 37.1515ZM30.4427 35.4927L37.6598 35.6588L40.2119 30.395L32.929 28.9142L30.4427 35.4927ZM35.9288 28.6119L40.9575 29.6489L43.201 25.3837L39.7171 24.0013L39.1968 8.41484L38.2184 23.2563L35.9288 28.6119Z" fill="white"/>
<path d="M19.5553 17.1557L17.7375 21.6533L25.306 22.4188L27.1 17.2543L38.7001 8.24395L25.0333 17.074L19.5553 17.1557ZM17.5573 18.8145L10.3402 18.6484L7.7881 23.9122L15.071 25.393L17.5573 18.8145ZM12.0712 25.6952L7.04252 24.6583L4.79896 28.9235L8.28285 30.3059L8.80316 45.8923L9.78156 31.0509L12.0712 25.6952Z" fill="white"/>
</svg>
